<?xml version="1.0" standalone="no"?>
<!DOCTYPE svg PUBLIC "-//W3C//DTD SVG 20010904//EN"
 "http://www.w3.org/TR/2001/REC-SVG-20010904/DTD/svg10.dtd">
<svg version="1.0" xmlns="http://www.w3.org/2000/svg"
 width="1280.000000pt" height="860.000000pt" viewBox="0 0 1280.000000 860.000000"
 preserveAspectRatio="xMidYMid meet"
  transform="rotate(90)"
 >

<g transform="translate(0.000000,860.000000) scale(0.100000,-0.100000)"
fill="#ffffff" stroke="none">
<path d="M4330 8585 c-44 -53 79 -144 440 -325 96 -48 290 -138 430 -199 140
-62 277 -122 304 -134 47 -21 56 -33 210 -265 158 -240 161 -243 191 -238 16
4 33 10 38 15 4 4 -72 129 -170 278 l-178 269 -65 23 c-231 81 -786 362 -1044
527 -101 65 -134 75 -156 49z"/>
<path d="M8304 8548 c-254 -166 -828 -456 -1066 -539 -63 -22 -68 -26 -107
-89 -22 -36 -101 -157 -175 -270 -74 -113 -132 -208 -128 -211 4 -4 21 -10 38
-13 30 -7 31 -6 178 216 80 123 155 233 166 246 11 13 77 48 147 78 686 296
1069 500 1089 580 8 30 -11 54 -41 54 -12 0 -58 -23 -101 -52z"/>
<path d="M3152 8302 c-12 -26 -24 -80 -28 -120 -7 -84 0 -80 -146 -84 -86 -3
-99 -6 -122 -27 -35 -33 -25 -37 111 -45 185 -11 280 -46 398 -143 56 -46 64
-57 59 -78 -8 -31 23 -63 158 -160 80 -57 101 -78 124 -122 18 -36 62 -87 134
-156 94 -90 107 -107 103 -130 -11 -55 109 -245 240 -380 37 -39 67 -76 67
-83 0 -7 10 -39 21 -71 17 -45 38 -74 93 -129 85 -84 154 -119 481 -249 279
-111 303 -123 353 -183 51 -61 137 -121 183 -128 30 -5 37 -2 57 25 27 37 23
57 -21 108 -36 41 -93 79 -147 98 -20 7 -84 49 -141 92 -112 85 -499 344 -693
464 l-120 74 -100 188 c-108 201 -146 257 -175 257 -12 0 -42 36 -90 108 -76
115 -126 172 -157 176 -12 2 -45 45 -87 112 -88 140 -131 186 -173 182 -40 -3
-105 45 -208 152 -85 89 -121 154 -132 237 -3 29 -10 55 -14 58 -4 2 -16 -17
-28 -43z"/>
<path d="M9651 8285 c-26 -134 -74 -206 -216 -326 -76 -63 -92 -73 -122 -71
-47 4 -88 -40 -179 -187 -53 -85 -74 -111 -90 -111 -28 0 -66 -44 -153 -174
-50 -75 -77 -105 -96 -110 -32 -8 -73 -71 -178 -271 -43 -83 -83 -157 -90
-165 -7 -9 -59 -44 -117 -80 -172 -104 -563 -365 -688 -459 -64 -48 -138 -95
-163 -104 -65 -25 -125 -72 -155 -122 l-25 -44 22 -31 c15 -20 31 -30 48 -30
41 0 124 54 182 118 65 72 103 91 391 206 251 99 354 148 424 203 62 50 119
133 136 198 10 40 27 66 86 130 134 143 238 310 230 367 -4 26 3 37 51 81 100
92 181 181 188 207 9 37 18 46 138 135 129 96 149 117 142 145 -7 29 95 119
186 164 80 39 142 52 300 61 117 8 125 14 67 53 -29 19 -46 22 -136 22 -117 0
-108 -7 -119 100 -4 36 -18 85 -30 110 l-23 45 -11 -60z"/>
<path d="M6245 7434 c-90 -10 -261 -46 -328 -71 -225 -80 -360 -189 -434 -348
-32 -72 -43 -208 -23 -307 18 -91 79 -224 154 -335 102 -151 86 -140 148 -105
78 45 199 89 313 115 87 19 128 22 315 22 166 0 235 -4 304 -18 125 -25 238
-62 330 -108 91 -45 73 -53 160 76 61 91 103 171 137 265 20 56 24 83 24 196
l0 130 -39 80 c-96 195 -323 333 -641 389 -89 16 -342 27 -420 19z m485 -67
c186 -44 331 -114 435 -209 51 -47 74 -79 107 -146 42 -84 43 -87 43 -191 0
-119 -18 -188 -82 -315 -41 -81 -131 -216 -145 -216 -5 0 -32 12 -61 26 -250
127 -674 167 -990 93 -92 -22 -242 -77 -280 -104 -12 -8 -27 -15 -33 -15 -16
0 -94 110 -144 203 -210 388 -75 699 364 842 56 18 133 38 171 44 39 6 81 13
95 15 14 3 113 3 220 1 165 -3 211 -7 300 -28z"/>
<path d="M5656 7139 c-84 -74 -126 -185 -126 -334 0 -147 43 -275 120 -354 57
-59 94 -75 170 -76 54 0 77 6 131 32 36 18 88 53 114 77 l48 45 -6 68 c-9 103
-73 275 -149 403 -65 108 -152 180 -219 180 -28 0 -46 -9 -83 -41z"/>
<path d="M6953 7146 c-66 -31 -132 -100 -177 -185 -70 -134 -115 -358 -85
-428 16 -37 95 -104 159 -135 67 -32 167 -36 224 -9 175 85 252 400 153 634
-9 20 -39 62 -68 92 -50 53 -54 55 -103 55 -33 0 -70 -9 -103 -24z"/>
<path d="M6371 6697 c-25 -31 13 -66 46 -42 14 11 16 18 7 32 -14 23 -38 28
-53 10z"/>
<path d="M6271 6587 c-18 -23 -2 -49 28 -45 20 2 26 8 26 28 0 29 -34 40 -54
17z"/>
<path d="M6483 6593 c-18 -7 -16 -50 2 -57 24 -9 45 4 45 29 0 18 -22 40 -33
34 -1 0 -8 -3 -14 -6z"/>
<path d="M985 7284 c-485 -48 -760 -125 -888 -249 -132 -126 -127 -260 17
-463 129 -183 365 -431 546 -575 253 -201 598 -387 794 -427 l58 -12 -50 -34
c-90 -60 -132 -135 -132 -233 0 -59 26 -148 58 -201 116 -188 371 -374 662
-483 200 -75 368 -107 596 -114 201 -7 367 6 611 48 338 57 536 115 1411 418
145 50 332 109 415 132 84 22 157 42 163 44 9 3 3 39 -17 122 l-30 118 44 160
44 160 -766 385 c-421 213 -869 441 -996 508 -745 393 -1312 596 -1880 673
-143 19 -554 34 -660 23z m289 -44 c-5 -4 -66 -53 -137 -109 -70 -56 -158
-130 -196 -164 -119 -109 -254 -143 -536 -134 -145 5 -350 28 -363 42 -12 12
27 83 69 125 115 115 413 206 789 239 205 19 393 19 374 1z m285 -16 c109 -23
287 -75 436 -129 149 -53 446 -174 459 -186 5 -4 3 -36 -4 -74 -10 -53 -15
-65 -29 -61 -47 15 -172 26 -302 26 -163 0 -268 -20 -346 -66 l-44 -26 -107
17 c-259 40 -499 100 -612 152 l-75 34 58 55 c32 29 124 106 205 170 l147 116
69 -6 c38 -4 103 -13 145 -22z m408 -55 c495 -111 927 -288 1723 -706 179 -94
601 -308 938 -477 494 -247 612 -310 612 -325 0 -32 -15 -33 -97 -3 -174 64
-428 186 -1258 602 -1163 583 -1533 752 -1960 896 -71 24 -123 44 -113 44 9 0
79 -14 155 -31z m-973 -323 c96 -46 325 -105 557 -143 l169 -28 0 -31 c0 -26
19 -93 45 -155 5 -13 -4 -19 -42 -28 -26 -7 -186 -52 -355 -102 -381 -111
-635 -176 -750 -191 l-89 -12 -90 90 c-154 151 -319 361 -370 467 -32 68 -40
133 -14 123 23 -9 230 -34 335 -41 166 -11 375 20 470 70 25 13 47 22 50 21 3
-1 40 -19 84 -40z m1751 -65 c121 -56 292 -137 380 -179 l160 -78 -155 -12
c-169 -13 -402 -15 -464 -4 -37 7 -44 13 -88 87 -26 44 -61 100 -77 125 -28
43 -29 49 -20 95 14 70 18 78 32 72 6 -2 111 -50 232 -106z m-362 -34 c37 -8
69 -16 71 -18 2 -2 36 -57 75 -122 l72 -118 -30 -37 c-51 -65 -57 -66 -259
-53 -184 12 -318 29 -434 57 -65 15 -67 16 -87 64 -12 27 -26 72 -33 100 -11
50 -11 53 13 71 32 25 118 57 182 69 69 12 345 4 430 -13z m1016 -329 c33 -40
103 -134 156 -208 54 -74 108 -146 121 -161 32 -33 30 -39 -8 -33 -18 2 -157
11 -308 19 -320 18 -481 32 -530 45 -26 7 -57 34 -122 107 -48 54 -105 117
-126 141 l-40 42 39 42 c22 24 39 45 39 48 0 3 102 6 228 7 125 1 263 6 307
11 44 5 104 10 132 11 l53 1 59 -72z m637 -273 c332 -168 599 -305 594 -305
-6 0 -61 11 -123 24 -159 34 -546 104 -646 116 -65 7 -90 15 -109 32 -13 13
-78 97 -145 188 -66 91 -135 184 -154 208 -19 23 -31 42 -28 42 4 0 279 -137
611 -305z m-2182 198 c36 -54 73 -108 82 -121 9 -12 15 -24 13 -26 -8 -8 -360
-136 -479 -174 -260 -84 -491 -142 -563 -142 -25 0 -57 19 -149 88 -112 84
-188 147 -188 155 0 3 27 7 60 11 89 10 407 92 755 194 267 79 367 107 397
111 3 1 36 -43 72 -96z m71 67 c103 -23 255 -40 410 -46 89 -4 167 -12 176
-18 9 -6 73 -72 142 -148 l126 -136 -47 -79 -47 -79 -53 18 c-29 10 -121 34
-205 54 -280 65 -283 66 -358 145 -59 61 -151 182 -211 278 -21 32 -21 33 -2
28 10 -4 41 -11 69 -17z m105 -301 c50 -57 51 -61 34 -74 -11 -8 -84 -57 -164
-108 -190 -123 -402 -238 -489 -266 l-70 -22 -85 35 c-77 32 -232 113 -294
154 -23 15 -20 17 99 43 230 51 661 191 915 299 1 0 25 -27 54 -61z m1087 -93
c120 -8 308 -20 418 -27 110 -6 204 -14 209 -19 9 -9 -1 -67 -13 -74 -14 -9
-218 -48 -350 -66 -167 -24 -526 -60 -591 -60 l-48 0 -5 43 c-2 23 -8 51 -11
62 -5 14 7 44 38 96 l45 77 45 -9 c25 -5 144 -15 263 -23z m-737 -65 c235 -55
278 -68 306 -96 94 -94 -109 -196 -509 -256 -157 -24 -272 -26 -532 -10 -172
10 -235 18 -235 30 0 3 24 15 53 25 98 34 412 217 617 359 35 25 35 25 80 7
25 -10 124 -36 220 -59z m1553 -16 c141 -21 392 -68 646 -121 195 -41 228 -51
385 -118 94 -41 190 -80 214 -87 41 -12 43 -14 36 -43 -9 -43 -15 -47 -54 -36
-66 18 -297 51 -665 96 -406 49 -679 88 -737 104 -21 6 -38 17 -38 25 0 8 14
48 30 90 17 42 30 82 30 90 0 19 24 19 153 0z m-223 -87 c0 -2 -9 -27 -18 -57
l-18 -54 -97 -39 c-117 -47 -165 -56 -326 -64 -116 -6 -524 9 -614 22 l-38 6
54 32 c53 32 59 33 263 50 306 26 735 83 753 102 5 4 41 6 41 2z m23 -147 c45
-17 272 -51 683 -100 400 -49 622 -80 724 -102 55 -12 58 -19 36 -73 l-14 -34
-144 -4 c-200 -7 -841 9 -1158 27 -553 33 -1732 135 -1684 147 16 3 94 19 174
34 141 26 151 26 340 18 107 -5 317 -9 465 -9 l270 1 85 31 c47 17 110 40 140
52 30 11 56 20 57 21 1 0 12 -4 26 -9z m-1878 -161 c245 -17 615 -49 670 -59
38 -6 32 -9 -115 -54 -257 -77 -479 -135 -585 -152 -98 -16 -443 -37 -457 -28
-16 9 -7 90 16 139 26 56 76 102 150 139 57 29 97 30 321 15z m932 -182 c131
-104 259 -192 293 -203 37 -12 20 -24 -62 -49 -157 -47 -163 -48 -251 -36
-187 26 -412 79 -644 152 -121 37 -161 58 -116 58 17 0 415 113 543 154 41 13
82 25 92 25 9 1 74 -45 145 -101z m138 88 c607 -59 1332 -96 1882 -96 357 0
362 0 368 -21 4 -11 5 -22 3 -23 -1 -1 -86 -8 -188 -15 -249 -16 -545 -43
-1025 -92 -310 -32 -445 -41 -601 -43 l-200 -1 -85 42 c-64 32 -294 199 -358
259 -8 7 52 4 204 -10z m2273 -215 c19 -62 16 -69 -30 -81 -142 -35 -425 -126
-788 -253 -228 -80 -487 -166 -575 -192 -88 -25 -166 -48 -173 -50 -17 -6 -21
-14 120 196 65 97 144 207 176 245 l58 69 104 12 c243 27 938 87 1061 92 33 1
37 -2 47 -38z m-3152 -21 c208 -72 610 -169 699 -170 26 0 20 -6 -45 -41 -41
-22 -176 -107 -300 -189 -124 -82 -242 -156 -263 -166 -44 -21 -57 -18 -215
56 -254 121 -465 304 -531 462 l-20 48 73 0 c88 0 322 18 379 30 76 14 106 10
223 -30z m1872 -68 c-7 -9 -45 -60 -84 -112 -39 -52 -115 -161 -168 -242 -54
-81 -105 -149 -114 -152 -106 -33 -632 -118 -632 -102 0 2 33 107 74 233 40
125 79 251 85 279 11 47 16 52 49 62 20 6 145 14 277 17 132 3 292 11 355 19
171 20 174 20 158 -2z m-873 -94 c-4 -18 -40 -136 -81 -261 -41 -125 -74 -234
-74 -241 0 -33 -272 -33 -470 -1 -116 19 -260 56 -260 67 0 4 4 8 8 8 5 0 112
69 238 153 237 158 362 229 430 246 78 19 199 53 203 57 10 10 12 2 6 -28z"/>
<path d="M11365 7284 c-309 -32 -443 -55 -675 -115 -420 -108 -867 -292 -1415
-581 -126 -67 -575 -295 -996 -508 l-766 -385 44 -160 44 -160 -30 -118 c-20
-83 -26 -119 -17 -122 6 -2 79 -22 163 -44 83 -23 270 -82 415 -132 875 -303
1073 -361 1411 -418 244 -42 410 -55 611 -48 228 7 396 39 596 114 291 109
546 295 662 483 32 53 58 142 58 201 0 98 -42 173 -132 233 l-50 34 58 12
c196 40 541 226 794 427 243 193 549 539 626 708 92 201 -18 366 -312 464
-101 34 -285 73 -454 96 -110 15 -546 28 -635 19z m630 -54 c241 -30 471 -90
588 -153 75 -39 151 -114 167 -162 7 -20 10 -38 8 -40 -13 -14 -218 -37 -363
-42 -287 -9 -415 24 -543 140 -43 38 -135 115 -205 171 l-128 101 53 5 c67 6
305 -5 423 -20z m-393 -95 c81 -64 173 -140 205 -169 l58 -55 -75 -34 c-113
-52 -353 -112 -612 -152 l-107 -17 -44 26 c-78 46 -183 66 -346 66 -130 0
-255 -11 -302 -25 -13 -4 -19 7 -28 51 -16 80 -15 82 27 100 376 161 714 274
922 309 148 25 138 29 302 -100z m-727 21 c-427 -144 -797 -313 -1960 -896
-830 -416 -1084 -538 -1258 -602 -82 -30 -97 -29 -97 3 0 15 118 78 613 325
336 169 758 383 937 477 789 415 1217 590 1715 705 184 42 200 39 50 -12z
m-559 -332 c12 -58 12 -60 -17 -104 -16 -25 -51 -81 -77 -125 -44 -74 -51 -80
-88 -87 -62 -11 -295 -9 -464 4 l-155 12 150 73 c262 127 620 292 630 289 5
-1 15 -29 21 -62z m1621 42 c103 -52 306 -82 473 -71 105 7 312 32 335 41 26
10 18 -55 -14 -123 -51 -106 -216 -316 -370 -467 l-90 -90 -89 12 c-115 15
-369 80 -750 191 -169 50 -329 95 -355 102 -38 9 -47 15 -42 28 26 62 45 129
45 155 l0 31 169 28 c240 39 466 98 559 145 43 21 78 39 79 40 1 1 23 -9 50
-22z m-1099 -106 c73 -12 157 -42 191 -69 24 -18 24 -21 13 -71 -7 -28 -21
-73 -33 -100 -20 -48 -22 -49 -87 -64 -116 -28 -250 -45 -434 -57 -202 -13
-208 -12 -259 53 l-30 37 72 118 c39 65 76 121 82 125 6 3 49 12 96 18 47 7
93 13 101 15 38 7 231 4 288 -5z m-1053 -291 c83 -6 205 -7 273 -3 68 3 122 3
122 -2 0 -5 17 -28 39 -52 l39 -42 -40 -42 c-21 -24 -78 -87 -126 -141 -65
-73 -96 -100 -122 -107 -49 -13 -210 -27 -530 -45 -151 -8 -290 -17 -307 -19
-39 -6 -41 0 -9 33 13 15 67 87 121 161 53 74 124 168 157 209 l61 74 86 -7
c47 -4 154 -11 236 -17z m-438 -61 c-19 -24 -88 -117 -154 -208 -67 -91 -132
-175 -145 -188 -19 -17 -44 -25 -109 -32 -100 -12 -487 -82 -646 -116 -62 -13
-117 -24 -123 -24 -11 0 1191 609 1203 610 5 0 -7 -19 -26 -42z m1893 -29 c91
-26 251 -73 356 -103 229 -67 497 -133 577 -142 31 -4 57 -9 57 -11 0 -8 -77
-71 -188 -155 -92 -69 -124 -88 -149 -88 -72 0 -303 58 -563 142 -119 38 -471
166 -479 174 -2 2 4 14 13 26 9 13 46 67 82 120 76 114 43 110 294 37z m-299
19 c-59 -95 -151 -216 -210 -277 -75 -79 -78 -80 -358 -145 -84 -20 -176 -44
-205 -54 l-53 -18 -47 79 -47 79 126 136 c69 76 133 142 142 148 9 6 85 14
171 17 160 7 333 27 430 51 30 8 59 14 63 15 5 1 0 -14 -12 -31z m162 -334
c228 -82 478 -158 636 -193 119 -26 122 -28 99 -43 -62 -41 -217 -122 -294
-154 l-85 -35 -70 22 c-87 28 -299 143 -489 266 -80 51 -153 100 -164 108 -17
13 -16 17 34 74 l52 60 52 -21 c28 -11 131 -49 229 -84z m-1056 -112 c31 -55
34 -67 24 -88 -6 -14 -11 -40 -11 -59 l0 -35 -49 0 c-65 0 -424 36 -592 60
-132 18 -336 57 -350 66 -12 7 -22 65 -13 74 5 5 99 13 209 19 329 19 628 41
675 50 52 9 53 8 107 -87z m943 -124 c130 -81 303 -172 359 -189 85 -25 45
-36 -194 -50 -260 -16 -375 -14 -532 10 -335 50 -533 130 -533 213 0 30 43 66
102 83 30 8 137 35 238 59 102 25 201 51 219 59 l35 15 100 -67 c56 -37 148
-97 206 -133z m-1970 107 c0 -8 14 -48 30 -90 17 -42 30 -82 30 -90 0 -8 -17
-19 -37 -25 -59 -16 -332 -55 -738 -104 -368 -45 -599 -78 -665 -96 -39 -11
-45 -7 -54 36 -7 29 -5 31 36 43 24 7 120 46 214 87 157 66 190 77 385 118
118 24 302 60 409 80 333 60 390 66 390 41z m235 -115 c139 -26 393 -56 634
-76 199 -17 205 -18 258 -50 l54 -32 -38 -6 c-90 -13 -498 -28 -614 -22 -161
8 -209 17 -326 64 l-97 39 -18 54 c-9 30 -18 56 -18 58 0 2 15 0 33 -3 17 -4
77 -15 132 -26z m-28 -161 c61 -23 136 -44 185 -51 81 -10 412 -7 746 8 130 6
157 4 290 -20 81 -15 160 -31 176 -34 48 -12 -1129 -114 -1684 -147 -317 -18
-958 -34 -1158 -27 l-144 4 -14 34 c-22 54 -19 61 36 73 102 22 324 53 724
102 408 49 640 83 680 99 26 10 36 8 163 -41z m2039 -134 c74 -37 124 -83 150
-139 23 -49 32 -130 17 -139 -15 -9 -360 12 -458 28 -106 17 -328 75 -585 152
-190 58 -220 49 305 94 198 17 335 26 431 28 78 1 97 -2 140 -24z m-1187 -69
c-64 -60 -294 -227 -358 -259 l-85 -42 -200 1 c-156 2 -291 11 -601 43 -480
49 -776 76 -1025 92 -102 7 -187 14 -188 15 -2 1 -1 12 3 23 6 21 11 21 368
21 547 0 1300 38 1857 94 139 14 236 19 229 12z m201 -32 c180 -55 496 -144
514 -144 98 0 -307 -125 -579 -179 -247 -48 -255 -48 -432 5 -83 25 -100 37
-63 49 34 11 162 99 293 203 71 56 134 102 140 102 7 0 64 -16 127 -36z
m-2440 -169 c222 -16 689 -58 865 -78 l109 -12 58 -69 c32 -38 111 -148 176
-245 141 -210 137 -202 120 -196 -7 2 -85 25 -173 50 -88 26 -347 112 -575
192 -363 127 -646 218 -787 253 -28 7 -43 16 -43 27 0 30 23 93 34 93 6 0 103
-7 216 -15z m3205 -25 c39 -5 140 -12 226 -16 l157 -7 -20 -46 c-65 -157 -277
-341 -530 -461 -158 -74 -171 -77 -215 -56 -21 10 -139 84 -263 166 -124 82
-259 167 -300 189 -65 35 -71 41 -45 41 92 1 525 107 705 174 102 37 123 39
285 16z m-1900 -95 c99 -9 248 -15 330 -14 97 1 165 -3 192 -11 39 -12 42 -16
54 -64 6 -28 45 -154 85 -279 41 -126 74 -231 74 -233 0 -16 -526 69 -632 102
-9 3 -60 71 -114 152 -53 81 -129 190 -168 242 -39 52 -77 103 -85 114 -14 18
-12 19 35 13 27 -4 130 -14 229 -22z m700 -85 c44 -12 98 -26 119 -31 68 -17
193 -88 430 -246 126 -84 233 -153 238 -153 4 0 8 -4 8 -8 0 -11 -144 -48
-260 -67 -198 -32 -470 -32 -470 1 0 7 -33 116 -74 241 -78 240 -94 299 -79
290 5 -3 45 -15 88 -27z"/>
<path d="M6142 6365 c-271 -48 -483 -181 -629 -395 -141 -208 -209 -506 -183
-803 45 -511 302 -938 676 -1122 133 -65 239 -89 399 -88 152 1 243 21 373 83
98 47 146 79 231 155 239 213 391 523 446 906 46 323 -26 665 -189 893 -60 84
-179 195 -263 245 -77 45 -202 94 -302 117 -96 22 -450 28 -559 9z m423 -26
c305 -31 539 -163 686 -387 124 -189 179 -388 179 -650 0 -166 -21 -310 -66
-461 -115 -380 -350 -669 -641 -788 -111 -46 -198 -63 -321 -63 -243 0 -439
82 -628 262 -191 184 -329 449 -390 753 -14 69 -18 136 -18 290 0 185 2 208
27 306 52 204 126 344 247 469 214 221 519 310 925 269z"/>
<path d="M6290 6099 c-296 -21 -510 -161 -631 -414 -58 -121 -80 -217 -86
-380 -8 -226 33 -411 133 -606 148 -287 381 -452 659 -466 133 -7 223 13 344
73 254 128 451 436 502 784 17 120 7 354 -21 450 -35 126 -100 247 -175 328
-168 181 -399 255 -725 231z"/>
<path d="M5157 4979 c-81 -27 -126 -58 -183 -123 -28 -32 -57 -56 -69 -56 -47
0 -232 -70 -371 -140 -181 -91 -291 -168 -391 -274 l-74 -79 -182 -8 c-219 -9
-265 -16 -280 -40 -11 -17 -27 -19 -202 -19 -148 0 -196 -3 -210 -14 -15 -11
-48 -13 -156 -9 -159 7 -186 2 -195 -32 -7 -28 -41 -38 -124 -37 -101 1 -149
36 -236 173 -63 100 -74 101 -74 9 0 -38 8 -72 25 -108 14 -30 25 -63 25 -73
0 -11 -27 -48 -60 -84 -32 -35 -62 -76 -65 -92 -4 -15 -8 -34 -11 -40 -6 -21
10 -15 82 32 79 52 128 69 269 90 133 20 161 19 185 -5 28 -28 42 -26 189 21
l128 42 32 -24 c51 -38 147 -32 294 18 101 35 116 37 124 24 24 -38 305 -1
438 58 32 14 58 17 117 13 97 -6 161 9 273 64 144 70 322 214 449 363 64 75
70 79 124 90 109 22 201 79 262 163 25 34 26 41 17 78 -11 38 -13 40 -52 40
-22 -1 -66 -10 -98 -21z"/>
<path d="M7494 4961 c-13 -47 -8 -59 55 -125 52 -55 139 -101 222 -117 53 -10
60 -15 120 -86 127 -150 339 -318 480 -382 92 -41 159 -54 247 -49 59 4 85 1
117 -13 134 -59 413 -97 438 -58 8 13 23 11 124 -24 147 -50 243 -56 294 -18
l32 24 128 -42 c71 -22 138 -41 149 -41 11 0 29 9 41 21 19 19 28 21 98 14
170 -15 297 -50 346 -94 11 -10 35 -26 53 -35 l32 -17 0 26 c0 36 -22 74 -65
115 -21 19 -45 48 -55 63 -18 28 -17 30 11 93 20 45 29 79 29 116 0 89 -11 88
-70 -4 -94 -148 -140 -181 -250 -180 -69 0 -125 16 -116 31 4 5 -2 17 -11 27
-15 15 -35 16 -173 12 -125 -5 -158 -3 -168 8 -10 11 -54 14 -205 14 -177 0
-193 1 -204 19 -15 24 -61 31 -283 40 l-179 8 -74 79 c-100 106 -210 183 -391
274 -140 70 -325 140 -373 140 -12 0 -37 20 -62 50 -23 27 -61 63 -85 79 -52
36 -152 71 -204 71 -36 0 -38 -2 -48 -39z"/>
<path d="M5354 4501 c-44 -20 -90 -70 -126 -137 -18 -35 -30 -45 -63 -53 -59
-15 -155 -92 -299 -238 -271 -277 -468 -574 -453 -684 5 -36 4 -37 -33 -43
-46 -7 -122 -84 -261 -267 -189 -246 -306 -425 -320 -489 -10 -43 9 -110 30
-110 25 0 7 -28 -64 -101 -80 -82 -109 -132 -94 -161 7 -13 -1 -38 -31 -97
-68 -137 -87 -215 -56 -240 11 -9 8 -22 -17 -73 -79 -167 -101 -275 -64 -316
17 -19 17 -21 -13 -72 -109 -184 -210 -294 -322 -351 -71 -36 -109 -71 -93
-87 18 -18 97 -3 181 36 122 56 133 58 174 30 28 -19 162 -185 201 -248 8 -13
10 -13 19 0 18 28 10 58 -45 172 -43 88 -56 127 -61 179 -12 122 47 308 95
301 36 -6 52 52 64 234 10 145 13 162 31 170 30 14 48 78 53 191 5 95 7 102
28 107 28 7 64 54 117 153 23 43 42 79 44 81 1 2 11 -1 21 -6 32 -17 80 13
173 107 152 153 331 393 394 524 37 79 51 143 38 173 -11 23 -10 24 21 24 17
0 46 9 63 19 120 73 357 364 524 641 80 132 116 212 126 275 6 43 14 56 57 95
55 49 97 126 97 178 0 18 -10 48 -22 67 -27 41 -52 44 -114 16z"/>
<path d="M7344 4480 c-26 -39 -27 -43 -15 -95 14 -63 56 -125 111 -163 36 -25
39 -31 40 -74 1 -146 397 -728 604 -887 36 -28 69 -45 95 -48 37 -5 39 -7 31
-29 -37 -97 171 -430 436 -698 95 -95 134 -119 171 -105 21 8 26 3 59 -64 48
-95 93 -156 119 -163 20 -5 23 -14 28 -102 8 -119 25 -184 54 -196 23 -11 33
-62 33 -180 0 -90 18 -193 37 -212 8 -8 23 -12 33 -9 13 4 22 -6 40 -47 74
-171 67 -293 -26 -465 -47 -86 -52 -108 -31 -137 12 -17 14 -16 32 10 59 91
160 216 190 234 40 25 45 24 169 -33 84 -38 163 -53 181 -35 16 15 -21 51 -87
84 -113 57 -203 151 -307 324 l-50 82 21 28 c17 23 20 38 15 73 -8 56 -30 123
-73 216 -23 51 -31 78 -24 85 28 28 -6 159 -71 274 -23 40 -27 57 -19 67 20
24 -2 65 -87 161 l-84 95 23 18 c19 16 23 28 22 73 -1 44 -9 66 -44 123 -119
196 -360 514 -459 609 -50 47 -67 57 -89 54 -27 -4 -27 -3 -27 57 -1 48 -8 73
-34 125 -86 168 -240 369 -426 555 -140 140 -215 200 -281 224 -40 14 -53 25
-77 66 -39 68 -74 104 -122 126 -61 28 -81 25 -111 -21z"/>
<path d="M5505 4194 c-155 -264 -259 -623 -307 -1059 -20 -184 -17 -768 5
-965 70 -619 197 -1092 404 -1503 243 -486 566 -724 884 -653 149 33 271 109
409 252 202 211 356 495 490 904 267 816 312 1806 115 2525 -37 133 -67 218
-122 338 -29 65 -94 188 -109 206 -2 2 -28 -17 -57 -42 -235 -200 -535 -317
-818 -317 -280 0 -572 114 -800 312 -30 26 -58 48 -61 48 -4 0 -18 -21 -33
-46z"/>
</g>
</svg>
